<?xml version="1.0" standalone="no"?>
<!DOCTYPE svg PUBLIC "-//W3C//DTD SVG 20010904//EN"
 "http://www.w3.org/TR/2001/REC-SVG-20010904/DTD/svg10.dtd">
<svg version="1.0" xmlns="http://www.w3.org/2000/svg"
 width="512.000000pt" height="512.000000pt" viewBox="0 0 512.000000 512.000000"
 preserveAspectRatio="xMidYMid meet">
<metadata>
Created by potrace 1.14, written by Peter Selinger 2001-2017
</metadata>
<g transform="translate(0.000000,512.000000) scale(0.100000,-0.100000)"
fill="#000000" stroke="none">
<path d="M3444 4101 c-58 -27 -111 -77 -142 -135 l-27 -51 -3 -1742 -2 -1743
427 0 428 0 -5 1747 c-5 1668 -6 1750 -23 1785 -27 54 -83 107 -141 134 -49
23 -61 24 -261 24 -183 0 -215 -3 -251 -19z"/>
<path d="M1215 3121 c-87 -22 -160 -85 -198 -170 -21 -46 -21 -59 -24 -1284
l-3 -1237 430 0 430 0 -2 1243 -3 1242 -21 46 c-27 58 -85 116 -143 143 -41
19 -66 21 -241 23 -107 1 -208 -2 -225 -6z"/>
<path d="M2295 2106 c-56 -25 -115 -86 -142 -143 -17 -35 -18 -94 -21 -785
l-3 -748 431 0 431 0 -3 748 c-3 691 -4 750 -21 785 -27 57 -86 118 -142 143
-48 23 -61 24 -265 24 -204 0 -217 -1 -265 -24z"/>
</g>
</svg>
